<?xml version="1.0" encoding="utf-8"?>
<!-- Generator: Adobe Illustrator 23.0.1, SVG Export Plug-In . SVG Version: 6.00 Build 0)  -->
<svg version="1.1" id="Layer_1" xmlns="http://www.w3.org/2000/svg" xmlns:xlink="http://www.w3.org/1999/xlink" x="0px" y="0px"
	 viewBox="0 0 219 202" style="enable-background:new 0 0 219 202;" xml:space="preserve">
<style type="text/css">
	.st0{fill:#FFFFFF;}
</style>
<g>
	<g>
		<path class="st0" d="M158.1,142.4c-0.6,0-1,0.5-1,1.1c0,0.6,0.5,1.1,1,1.1c0.6,0,1-0.5,1-1.1C159.1,142.9,158.7,142.4,158.1,142.4
			z"/>
		<path class="st0" d="M161.5,152.2L161.5,152.2c0,0.6,0.5,1.1,1,1.1c0.6,0,1-0.5,1-1.1c0-0.6-0.5-1.1-1-1.1
			C161.9,151.1,161.5,151.6,161.5,152.2z"/>
		<path class="st0" d="M158.1,151.1L158.1,151.1c-0.6,0-1,0.5-1,1.1c0,0.6,0.5,1.1,1,1.1c0.6,0,1-0.5,1-1.1
			C159.1,151.6,158.7,151.1,158.1,151.1z"/>
		<path class="st0" d="M165.8,152.2L165.8,152.2c0,0.6,0.5,1.1,1,1.1c0.6,0,1-0.5,1-1.1c0-0.6-0.5-1.1-1-1.1
			C166.3,151.1,165.8,151.6,165.8,152.2z"/>
		<polygon class="st0" points="156.7,132.7 156.9,135.2 154.8,134.9 154.8,137.7 156.9,137.5 156.7,140.1 159.5,140.1 159.3,137.5
			161.4,137.7 161.4,134.9 159.3,135.2 159.5,132.7 		"/>
		<path class="st0" d="M159.9,141.6v8.9h8.6C167.8,145.9,164.3,142.3,159.9,141.6z"/>
		<path class="st0" d="M158.1,146.7c-0.6,0-1,0.5-1,1.1c0,0.6,0.5,1.1,1,1.1c0.6,0,1-0.5,1-1.1C159.1,147.2,158.7,146.7,158.1,146.7
			z"/>
		<path class="st0" d="M161.7,158.1c-0.3,0-1,2.2-0.3,3.8c0.4,0.8,1.2,1.2,1.9,1c0.7-0.2,0.9-0.9,0.9-1.4
			C164.4,159.8,162.8,158.1,161.7,158.1z"/>
		<path class="st0" d="M154.5,158.1c-1.1,0-2.6,1.6-2.6,3.4c0,0.5,0.2,1.2,0.9,1.4c0.7,0.2,1.6-0.1,1.9-1
			C155.4,160.4,154.8,158.1,154.5,158.1z"/>
		<path class="st0" d="M158.1,156.9c-0.9,0-3.1,4.5-1.4,6.8c0.3,0.4,0.9,0.7,1.4,0.7c0.6,0,1.1-0.2,1.4-0.7
			C161.2,161.5,159,156.9,158.1,156.9z"/>
		<path class="st0" d="M147.5,152.2L147.5,152.2c0-0.9,0.2-1.7,0.2-1.7h8.6v-0.7l0-6.3l0,0v-1.8c-4.2,0.7-7.5,4-8.5,8.1
			c-0.2,0.3-1,0.5-1.6,0.5c-3.2-0.4-9.6-1.6-9.6-2.9c0-1.9,1.3-2.7,2.6-2.7c1.8,0,3.8,1,5.4-1.4c-5.9,0.3-1.4-8.2-6.2-9.8
			c0.2,2.2,0,6-0.8,8c0,0-1.7-1.8-3.7-2.5c0.1,1.6-0.1,4.8-0.9,6.3c0,0-2-1.9-4.2-2.6c2,2.8,1.9,6.9,1.4,9.4
			c-0.2,0.7,0.4,1.6,1.9,1.5c2.3-0.1,10.3,0.2,13.8,1.7c1.1,0.4,2,0.9,2.5,1.7c0.4,1,1.3,2.6,2.4,3.5c0.5-1.8,2.6-3.7,4-3.6
			c0.4,0,0.9,0.7,1,1.4c0.1-0.6,1.2-2.4,2.3-2.4c1,0,2,1.5,2.4,2.7c0.1-0.8,0.6-1.6,1-1.6c1.4,0,3.2,1.2,3.8,3.3
			c0.5-0.7,3-3.8,3.3-5.9h-20.9C147.7,154,147.5,153.1,147.5,152.2z"/>
		<path class="st0" d="M152.8,152.2L152.8,152.2c0,0.6,0.5,1.1,1,1.1s1-0.5,1-1.1c0-0.6-0.5-1.1-1-1.1
			C153.2,151.1,152.8,151.6,152.8,152.2z"/>
		<path class="st0" d="M148.5,152.2L148.5,152.2c0,0.6,0.5,1.1,1,1.1c0.6,0,1-0.5,1-1.1c0-0.6-0.5-1.1-1-1.1
			C149,151.1,148.5,151.6,148.5,152.2z"/>
		<path class="st0" d="M66.2,156.5c-0.3,0.3-1.2,2.6-0.8,4c0.2,0.6,0.5,0.8,1,0.8c0.6,0,0.9-0.3,1-0.9
			C67.6,159,66.6,156.8,66.2,156.5z"/>
		<path class="st0" d="M73.6,162.7L73.6,162.7c-0.5,0.5-1,0.9-1.2,1.1c0.2,0.2,0.7,0.5,1.4,0.5c0.4,0,0.7-0.1,1.1-0.3
			c0.7-1.1,0-2.3-0.3-2.6C74.4,161.7,74.1,162.2,73.6,162.7z"/>
		<path class="st0" d="M70.9,160L70.9,160c0.7-0.8,1-1.3,0.8-1.8c-0.3-0.6-1.9-2.5-4-4.5c-0.1,0.4-0.2,0.8-0.3,1.3
			c1.4,1.9,2,4,1.5,5.7c0.2,0.1,0.3,0.2,0.3,0.2C69.7,161,70.4,160.4,70.9,160z"/>
		<path class="st0" d="M73.6,160.1L73.6,160.1c0.1-0.3,0-0.6-0.1-0.8c-0.1-0.1-0.1-0.1-0.1-0.1c-0.1,0-0.4,0.3-0.7,0.7
			c-0.2,0.3-0.5,0.6-0.8,1c-0.3,0.4-0.7,0.7-0.9,0.9c-0.3,0.3-0.6,0.6-0.6,0.7c0,0,0,0.1,0.1,0.1c0.1,0.1,0.3,0.2,0.5,0.2
			c0.3,0,0.9-0.1,1.8-1.1C73.3,161,73.5,160.4,73.6,160.1z"/>
		<path class="st0" d="M60.5,149.6L60.5,149.6c0,0-0.3,0.3-0.4,0.6c0.4,0,1,0.1,1.4,0.2c0-0.4-0.1-1,0-1.5
			C61,149,60.6,149.4,60.5,149.6z"/>
		<path class="st0" d="M65.8,150.2L65.8,150.2c0,0,4.1,3.7,5.5,5c0.3,0.3,0.8,0.4,1.2,0.1c0.3-0.1,0.6-0.3,0.9-0.4
			c4.1-1.5,10.9-1.6,13.4-1.5c1.5,0.1,2-0.8,1.9-1.5c-0.5-2.3-0.6-6.5,1.4-9.4c-2.1,0.7-4.2,2.6-4.2,2.6c-0.7-1.5-1-4.7-0.9-6.3
			c-1.9,0.7-3.7,2.5-3.7,2.5c-0.8-2-1-5.8-0.8-8c-4.8,1.6-0.3,10.1-6.2,9.8c1.6,2.4,3.6,1.4,5.4,1.4c1.3,0,2.8,0.8,2.6,2.7
			c-0.2,1.4-8,3.1-11.2,3.1c-2.2,0-3.7-0.7-4.8-2.2c-0.5-0.7-1.1-1.1-1.7-1c-0.8,0.1-1.6,0.9-1.6,2.7c0,1.3,0.5,4.1,2,4.1
			C66.2,153.8,66.2,151.6,65.8,150.2z"/>
		<path class="st0" d="M57.9,148.9L57.9,148.9c0.2,0.1,0.4,0,0.5-0.1c-0.6,0.8-0.6,1.3-0.3,1.6c0.4,0.4,0.7-0.3,1.7-1.4
			c1-1.1,1.7-1.4,1.3-1.8c-0.3-0.3-0.8-0.3-1.6,0.4c0.1-0.2,0.1-0.4,0.1-0.6c-0.3-1-1.9-2.2-2.7-2.2c-0.1,0-0.2,0-0.4,0.1
			c0.4-0.6,0.3-1.1,0-1.3c-0.3-0.3-0.4-0.1-0.7,0.3c0-0.3,0-0.6-0.3-1c-1.3-1.9-8-8.3-9.5-8.9c-0.9-0.4-1.2,0.1-1.2,0.1
			s-0.5,0.3-0.1,1.3c0.7,1.5,7.1,8.2,9,9.4c0.4,0.3,0.7,0.3,1,0.3c-0.4,0.3-0.5,0.5-0.3,0.8c0.2,0.2,0.7,0.3,1.3-0.1
			c0,0.1-0.1,0.2-0.1,0.4C55.7,147,57,148.6,57.9,148.9z"/>
		<path class="st0" d="M62.7,153.6c0-0.7-1.3-1.8-2.8-1.8c-2.2,0-3.2,1.4-3.2,2.1c0,1.4,1.3,1.5,1.7,1.6
			C60,155.6,62.5,154,62.7,153.6z"/>
		<path class="st0" d="M60.8,157L60.8,157c-0.6,0.8-0.8,1.5-0.7,2.2c0.2,0.9,1,1.2,1.8,1.2c0.8,0,1.5-0.4,1.9-1
			c0.9-1.3,0.9-4.3,0.6-4.7C63.6,154.8,61.8,155.7,60.8,157z"/>
		<path class="st0" d="M41.2,126L41.2,126c-0.6-0.6-1.9,0.3-2.7-0.1c0.3-1.9,1.7,0.1,3-1.3c0.5-0.6,0.2-1.4-0.1-1.7
			c-0.6,0.6-1.4,0.4-1.5,0.1c1.5-3.5-1.4-7.4-4.2-6.9c0.5,0.7,0.7,3.3,0.5,4c1.1,0.8,0.3,2.6-0.9,2c-0.8-0.3-2.2-2.3-0.6-3.7
			c0-0.5-0.9-0.6-1.8,0.6c0.7-2.2-3.5-1.5-4.3-1c-0.5,0.9-1,5.2,1.1,4.4c-1.1,1-1,1.9-0.5,1.9c1.3-1.7,3.2-0.3,3.6,0.5
			c0.5,1.2-1.2,2-2,1c-0.7,0.3-3.1,0.2-3.9-0.4c-0.4,2.9,3.5,5.7,6.9,4.1c0.3,0.1,0.5,0.9,0,1.5c0.3,0.3,1.1,0.6,1.6,0
			c1.3-1.4-0.7-2.7,1.2-3.1c0.4,0.8-0.4,2.1,0.2,2.8c1,1,2.3-0.9,3.5-1C40.4,128.3,42.2,127,41.2,126z M30.8,121.5L30.8,121.5
			c0,0-0.7-0.5,0.1-1.3c0.8-0.8,1.3-0.2,1.3-0.2s0.7,1.6,1,2.4C32.4,122.2,30.8,121.5,30.8,121.5z M37.2,126.5L37.2,126.5
			c-0.4,0.1-1.4,0.9-1.8,0.4l-2.2-2.2l1.1-1.2l1.1-1.2l2.2,2.2C38.1,125.1,37.3,126.1,37.2,126.5z"/>
		<path class="st0" d="M41.8,130.1L41.8,130.1c-0.2,0-0.5,0-0.7,0.3c-0.2,0.2-0.3,0.6-0.2,1c0.1,0.4,0.3,0.9,0.7,1.2
			c0.4,0.4,1,0.7,1.5,0.7c0.2,0,0.5,0,0.7-0.3c0.5-0.5,0.2-1.5-0.5-2.2C42.8,130.4,42.3,130.1,41.8,130.1z"/>
		<path class="st0" d="M35.5,123.5l-0.6,0.6h0l-0.6,0.6c0,0,1.2,1.6,2.2,1C37.1,124.7,35.5,123.5,35.5,123.5z"/>
		<path class="st0" d="M151.5,117.5c0,0.3-1.7,1.2-2.8-1.1c-1.2-0.2-2.4-0.6-3.2-0.9c1.4,2.8,2.6,5.1,4.6,6.4c2.9,1.9,7.5,1.5,9-0.6
			c-2.5-1.4-5.6-4.9-7.2-8.4c-0.3,0.8-0.9,2.2-1.4,3.1C150.7,116.5,151.1,117.1,151.5,117.5z"/>
		<polygon class="st0" points="151.8,112.8 151.8,112.8 151.8,112.8 		"/>
		<path class="st0" d="M179.3,74L179.3,74c3.3-1.4,7.8-4.5,9.9-6.7c0.3,0.4,1,2.2-1.4,4.2c-1.7,1.5-5.3,3.1-8,4.2
			c-1.2,1.8-3.5,3.8-6.8,6c6.3-1,14-3.5,17.7-7.2c7.1-6.9,3.3-15.4,2.4-17.2c-4.6,5.7-13.3,11.7-21.5,15
			C174.4,72.7,177.3,73.3,179.3,74z"/>
		<path class="st0" d="M174.1,61.2c4.1-3.4,8.6-10.2,9.3-12.6c0.9,0.7,1.4,2.6,0.1,4.9c-2.2,3.9-6.1,7.2-9.5,9.9
			c-0.1,2.5-1.2,5.4-2.3,7.5c5-3.3,10.7-8.4,13.3-11.7c3.4-4.4,4.8-8.8,4.1-13.1c0.2-4.9-3.3-9.9-4.8-11.1
			c-0.9,5.4-6.4,14.6-11.2,19.8C173.7,56.5,174,59,174.1,61.2z"/>
		<path class="st0" d="M170.9,92.8L170.9,92.8c1,1.1,2,2.5,2.7,3.7c3.8,0.8,8.4,0.6,8.4,0.6s-0.3,2-2.9,2.1c-1.1,0.1-4.7-0.5-6.2-1
			c-0.6,0.3-3.4,0.9-6.2,1.3c4,1.4,9.7,2.9,13.4,2.9c0.4,0,0.7,0,1,0c5.8-0.5,8.8-5.9,8.9-9c-1.7,0.3-4.7,0.6-7.8,0.6
			C179.7,94,174.7,93.8,170.9,92.8z"/>
		<path class="st0" d="M195,77.6c-5.2,2.7-14.4,5.6-21.6,5.5c1.8,1.1,3.6,2.4,4.7,3.5c3-0.2,7.2-1.1,9.6-2.1c0,0.4,0.1,2.3-2.7,3.2
			c-1.9,0.6-4.9,0.6-7,0.7c-1.7,1.1-4.4,2.2-6.6,3c2,0.3,4.5,0.5,6.8,0.5c3.9,0,7.3-0.4,9.5-1.1C189.6,90.1,196.1,87.2,195,77.6z"/>
		<path class="st0" d="M167,105L167,105c2.2,1,4.5,1.7,6.5,1.9c0,0-0.3,1.9-3.4,1.5c-1.7-0.2-3.8-1.5-4.2-1.8
			c-1.3,0.2-4.2,0.1-5.3-0.1c3.4,2.4,8.6,5.2,13,5.6c0.2,0,0.4,0,0.7,0c4.6,0,8.2-4.6,9.1-6.8c-4.7-0.1-12.5-1.9-17.3-4.6
			C166.4,101.8,166.8,103.3,167,105z"/>
		<path class="st0" d="M159.1,111.1c1.2,1.3,3.2,2.2,3.2,2.2s-0.5,1-1.7,1c-0.4,0-0.8-0.1-1.2-0.4c-0.8-0.5-1.9-1.7-1.9-1.7
			c-1.5-0.2-2.9-0.4-4.3-0.9c2.4,3,6.4,6.7,10.7,7.7c0.6,0.2,1.3,0.2,1.9,0.2c3.9,0,6.9-2.8,7.8-4.6c-4.4-0.6-10.7-3.9-14-7.2
			C159.5,108.8,159.4,110.1,159.1,111.1z"/>
		<path class="st0" d="M130.6,160L130.6,160c2.1,0,3.6-0.9,4.5-3c-2.9,1.4-6.2,0.6-12-1.2c0,0-2.3,1-3.5,1.1
			c3.5,1.1,8.7,2.7,9.5,4.7c0.3,1.7-0.6,1.9-0.6,1.9c-2.1-2.4-4.4-3.8-9.5-5.3c0,0.9-0.2,1.6-0.2,1.6s-1.1,0.3-3.4-0.1
			c2,1.7,6.8,5.7,7.4,10.2c0.4,3-1.7,3.1-1.7,3.1c-0.3-4.5-2.2-7.3-6.5-12c0,0-0.7,1.1-1.6,1.6c0,0-1.6-0.3-2.9-1.1
			c0.5,5.9,0.8,20.2,0.5,22.5c-0.2,1.6-1.2,2.3-1.2,2.3l0,0l0,0c0,0-0.9-0.7-1.2-2.3c-0.3-2.3,0-16.6,0.5-22.5
			c-1.3,0.9-2.9,1.1-2.9,1.1c-0.9-0.6-1.6-1.6-1.6-1.6c-4.2,4.7-6.2,7.5-6.5,12c0,0-2.1-0.1-1.7-3.1c0.6-4.5,5.4-8.5,7.4-10.2
			c-2.3,0.4-3.4,0.1-3.4,0.1s-0.2-0.6-0.2-1.6c-5.1,1.5-7.4,3-9.5,5.3c0,0-1-0.3-0.6-1.9c0.9-2,6-3.6,9.5-4.7
			c-1.2-0.1-3.5-1.1-3.5-1.1c-5.8,1.8-9.2,2.6-12,1.2c0.9,2.1,2.4,3,4.5,3l0,0c-2.7,1-5.5,3.7-6.2,6.5c2,7.3,8.3,9.5,8.3,9.5
			c-1.6-3.5-0.9-10.5,8.6-15.3c-5.9,5.8-8.1,11.1-6.6,16.1c1.4,4.6,6.1,6.4,9.6,6.5c-2.5-7.6-1.4-14.5,3.8-19.9
			c-2.2,6-5.3,24.4,3.6,27.5c0,0,0,0,0,0c0,0,0,0,0,0c8.9-3.1,5.8-21.5,3.6-27.5c5.1,5.5,6.2,12.3,3.8,19.9c3.5-0.1,8.1-1.9,9.6-6.5
			c1.6-5-0.7-10.3-6.6-16.1c9.5,4.8,10.2,11.8,8.6,15.3c0,0,6.3-2.2,8.3-9.5C136.1,163.7,133.3,161,130.6,160z"/>
		<path class="st0" d="M69,121.9c1.9-1.3,3.2-3.6,4.6-6.4c-0.8,0.3-2,0.7-3.2,0.9c-1.2,2.2-2.8,1.4-2.8,1.1c0.4-0.4,0.8-1,1.1-1.5
			c-0.5-0.9-1.1-2.3-1.4-3.1c-1.7,3.5-4.7,7-7.2,8.4C61.4,123.3,66.1,123.7,69,121.9z"/>
		<polygon class="st0" points="67.2,112.8 67.2,112.8 67.2,112.8 		"/>
		<path class="st0" d="M45.9,81.8c-3.3-2.2-5.6-4.2-6.8-6c-2.7-1.1-6.3-2.7-8-4.2c-2.4-2-1.6-3.8-1.4-4.2c2.1,2.2,6.7,5.3,9.9,6.7
			l0,0c2-0.8,4.9-1.4,7.6-1.7c-8.1-3.2-16.9-9.3-21.5-15c-0.9,1.8-4.7,10.3,2.4,17.2C31.9,78.2,39.6,80.8,45.9,81.8z"/>
		<path class="st0" d="M47.3,70.8c-1.1-2.1-2.2-5-2.3-7.5c-3.4-2.7-7.2-6-9.5-9.9c-1.3-2.2-0.8-4.2,0.1-4.9
			c0.7,2.4,5.2,9.2,9.3,12.6c0-2.2,0.4-4.7,1-6.6c-4.8-5.2-10.3-14.3-11.2-19.8c-1.5,1.2-5,6.2-4.8,11.1c-0.6,4.3,0.8,8.7,4.1,13.1
			C36.6,62.5,42.3,67.5,47.3,70.8z"/>
		<path class="st0" d="M45.4,96.5c0.7-1.2,1.7-2.6,2.7-3.7h0c-3.8,1.1-8.8,1.3-11.4,1.3c-3.1,0-6.1-0.2-7.8-0.6
			c0.2,3.1,3.1,8.5,8.9,9c0.3,0,0.6,0,1,0c3.6,0,9.4-1.5,13.4-2.9c-2.8-0.4-5.6-1-6.2-1.3c-1.5,0.4-5,1-6.2,1
			c-2.6-0.1-2.9-2.1-2.9-2.1S41.7,97.3,45.4,96.5z"/>
		<path class="st0" d="M31.4,90.8c2.2,0.7,5.6,1.1,9.5,1.1c2.3,0,4.8-0.2,6.8-0.5c-2.2-0.7-4.9-1.9-6.6-3c-2.2,0-5.1-0.1-7-0.7
			c-2.8-0.9-2.8-2.8-2.7-3.2c2.4,1,6.5,1.9,9.6,2.1c1.1-1.1,2.9-2.4,4.7-3.5c-7.2,0.1-16.4-2.8-21.6-5.5
			C22.9,87.2,29.4,90.1,31.4,90.8z"/>
		<path class="st0" d="M44.7,112.2c0.2,0,0.4,0,0.7,0c4.4-0.4,9.6-3.2,13-5.6c-1.1,0.2-3.9,0.3-5.3,0.1c-0.5,0.3-2.5,1.6-4.2,1.8
			c-3.1,0.4-3.4-1.5-3.4-1.5c2-0.2,4.3-0.9,6.5-1.9v0c0.2-1.7,0.6-3.1,0.9-4.2c-4.8,2.7-12.6,4.6-17.3,4.6
			C36.6,107.6,40.2,112.2,44.7,112.2z"/>
		<path class="st0" d="M53.2,119.3c0.6,0,1.3-0.1,1.9-0.2c4.2-1,8.3-4.7,10.7-7.7c-1.4,0.4-2.8,0.7-4.3,0.9c0,0-1.1,1.3-1.9,1.7
			c-0.4,0.2-0.8,0.4-1.2,0.4c-1.2,0-1.7-1-1.7-1s1.9-0.9,3.2-2.2c-0.2-1-0.4-2.3-0.4-3.7c-3.3,3.4-9.6,6.6-14,7.2
			C46.3,116.5,49.4,119.3,53.2,119.3z"/>
		<path class="st0" d="M107.9,10.5L107.9,10.5c0,0.9,0.7,1.7,1.6,1.7c0.9,0,1.6-0.8,1.6-1.7c0-0.9-0.7-1.7-1.6-1.7
			C108.6,8.8,107.9,9.6,107.9,10.5z"/>
		<polygon class="st0" points="108.4,6.9 108.4,6.9 110.6,6.9 110.4,4.3 112.8,4.5 112.8,2.4 110.4,2.7 110.6,0 108.4,0 108.6,2.7
			106.2,2.4 106.2,4.5 108.6,4.3 		"/>
		<path class="st0" d="M100.7,33.3L100.7,33.3c0.2,0.1,0.5,0.1,0.8,0.1h15.9c0.3,0,0.6,0,0.8-0.1c0.5-0.2,0.8-0.6,0.9-1.2H99.8
			C99.9,32.7,100.2,33.1,100.7,33.3z"/>
		<path class="st0" d="M118.2,30.9c0.2,0,0.3-0.1,0.3-0.3v-1.2c0-0.2-0.1-0.3-0.3-0.3h-17.4c-0.2,0-0.3,0.1-0.3,0.3v1.2
			c0,0.2,0.1,0.3,0.3,0.3H118.2z"/>
		<path class="st0" d="M120,27.9c0.4-0.6,2.7-4.9,2.7-9.2c0-3.9-4.9-6.1-7.8-6.2c-0.3,5.6-2.5,14.4-5.4,14.4c-2.7,0-5-8.7-5.4-14.4
			c-2.9,0.1-7.8,2.3-7.8,6.2c0,4.4,2.2,8.7,2.7,9.2H120z"/>
		<path class="st0" d="M109.5,24.1c1.3,0,3.1-4.3,3.5-8.3c0-0.8-1.3-2.1-3.5-2.1c-2.2,0-3.5,1.3-3.5,2.1
			C106.4,19.5,108.2,24.1,109.5,24.1z"/>
		<polygon class="st0" points="142.4,42.2 142.4,42.2 142.4,42.2 		"/>
		<path class="st0" d="M134.7,89.4c0-0.5-0.4-1-1-1H85.4c-0.5,0-1,0.4-1,1v33.1v0.1l0,0.2c0,0,0,0,0,0c0,0-0.1,1.7,0.9,3.8
			c1.1,2.4,5.1,6.4,10.4,9.1c7.4,3.8,11.8,6.8,13.9,8.5c2.2-1.7,6.5-4.8,13.9-8.5c5.3-2.7,9.3-6.7,10.4-9.1c1-2.1,0.8-3.9,0.8-3.9
			L134.7,89.4z M118.4,101.5l0.1,0.3c0.7,2.4,1.1,4.9,1.4,7.4c2,1.6,3.8,3.2,5.3,4.9c3-3.4,4.5-6.6,4.6-9.1c0,0-0.1,0-0.1,0
			c-1.4,0-2.5-1.1-2.5-2.5c0-0.5,0.2-0.9,0.4-1.3c-1.3-0.7-3-0.9-4.3-0.9c-1.2,0-2.4,0.1-3.8,0.4c-0.1,0-0.1,0-0.2,0.1l-0.4,0.1
			l0.1-0.3c0.1-0.3,0.3-0.7,0.3-0.9l0-0.1l0.1,0c4-0.7,7.1-0.4,9.1,0.8c0.4-0.2,0.8-0.4,1.3-0.4c1.4,0,2.5,1.1,2.5,2.5
			c0,1-0.6,1.8-1.3,2.2c0.1,2.8-1.7,6.5-5,10.3c0.2,0.2,0.3,0.4,0.5,0.6c0.1,0.1,0.2,0.3,0.3,0.4l0.1,0.1l-0.1,0.1
			c-0.2,0.2-0.3,0.4-0.5,0.6l-0.1,0.1l-0.1-0.1c0,0-0.1,0-0.1,0l0,0c-0.1-0.1-0.2-0.3-0.3-0.4c-0.1-0.2-0.3-0.3-0.4-0.5
			c-0.4,0.4-0.8,0.8-1.2,1.2l-0.3,0.3c-0.6,0.4-1.2,0.5-1.7,0.3l-0.2-0.1l0.2-0.1c1-0.9,1.8-1.7,2.5-2.5c-1.3-1.4-2.8-2.8-4.4-4.1
			c0.1,1.4,0.2,2.8,0.2,4.1c0,1.2-0.1,2.5-0.2,4.1l0,0.1l-0.1,0c-0.2,0.1-0.5,0.3-0.9,0.5l-0.2,0.1l0-0.3c0.1-1.6,0.2-3.1,0.2-4.5
			c0-0.5,0-1,0-1.4l0-0.3l0,0c0-0.9-0.2-3.8-0.5-5.6c0,0,0,0,0,0l-0.1,0l0-0.1c-0.2-1.6-0.6-3.2-0.9-4.7l0-0.1l0.1-0.1c0,0,0,0,0,0
			l0.1-0.1c0.2-0.2,0.4-0.4,0.5-0.6L118.4,101.5z M102,97.7c2-4.7,4.7-7.3,7.6-7.3c2.9,0,5.6,2.6,7.6,7.3l0.1,0.1l-0.1,0.1
			c-0.1,0.1-0.4,0.2-0.8,0.4l-0.1,0.1l-0.1-0.1c-1.8-4.2-4.2-6.6-6.6-6.6c-2.4,0-4.8,2.4-6.6,6.6l-0.1,0.1l-0.1-0.1
			c-0.4-0.2-0.7-0.3-0.8-0.4l-0.1-0.1L102,97.7z M101.3,99c0.7,0.4,2.5,1.3,4.4,0.7c1.7-0.5,3.9-0.5,3.9-0.5s2.2,0,3.9,0.5
			c1.9,0.6,3.7-0.3,4.4-0.7c0.1-0.1,0.3,0,0.2,0.2c-0.2,0.8-0.9,2.9-3.8,3.6c-2.8,0.7-4.1,3.9-4.5,5.2c0,0.2-0.3,0.2-0.3,0
			c-0.4-1.3-1.7-4.5-4.5-5.2c-3-0.7-3.7-2.7-3.8-3.6C101,99,101.2,98.9,101.3,99z M106.1,107c0.5,0,1-0.2,1.4-0.4
			c0.3,0.5,0.5,1,0.6,1.3c-0.6,0.3-1.2,0.6-1.9,0.6c-2.1,0-3.9-1.7-3.9-3.9c0-0.5,0.1-1,0.3-1.4c0.4,0.2,0.8,0.4,1.3,0.6
			c-0.1,0.3-0.2,0.6-0.2,0.9C103.7,105.9,104.8,107,106.1,107z M105,104.6c0-0.2,0-0.3,0.1-0.4c0.6,0.3,1.2,0.7,1.6,1.3
			c-0.2,0.1-0.4,0.2-0.6,0.2C105.5,105.7,105,105.2,105,104.6z M106.1,109.7c0.9,0,1.8-0.3,2.6-0.7c0.2,0.2,0.5,1,0.9,1
			c0.3,0,0.6-0.8,0.9-1c0.8,0.5,1.7,0.7,2.6,0.7c1.4,0,2.6-0.6,3.6-1.5c0,0,0,0.1,0.1,0.1c0.5,1.5,0.5,3.6,0.4,4.4
			c-0.1,0.8-0.3,1.7-0.5,2.4c-0.3,1-0.6,1.7-0.6,1.7c0,0-0.1,0.2-0.2,0.6c-0.3,0.7-0.8,2.1-1.5,3.6c-1.5-0.9-3.3-1.4-5.1-1.4
			c-1.7,0-3.3,0.4-4.7,1.2c-0.6-1.3-1.1-2.6-1.4-3.3c-0.2-0.4-0.3-0.7-0.3-0.7c0,0-0.4-0.9-0.7-2c-0.2-0.7-0.4-1.4-0.4-2.1
			c-0.1-0.6-0.1-2.7,0.4-4.3c0.1-0.2,0.2-0.5,0.3-0.7C103.1,109,104.5,109.7,106.1,109.7z M113,107c1.3,0,2.4-1.1,2.4-2.4
			c0-0.3-0.1-0.6-0.2-0.9c0.5-0.2,0.9-0.4,1.3-0.6c0.2,0.5,0.3,0.9,0.3,1.4c0,2.1-1.7,3.9-3.9,3.9c-0.7,0-1.4-0.2-2-0.6
			c0.1-0.4,0.3-0.8,0.6-1.3C112,106.9,112.5,107,113,107z M112.4,105.4c0.4-0.5,1-1,1.6-1.3c0.1,0.1,0.1,0.3,0.1,0.4
			c0,0.6-0.5,1.1-1.1,1.1C112.7,105.7,112.5,105.6,112.4,105.4z M89.3,99.8c0.5,0,0.9,0.2,1.3,0.4c1.3-0.8,3-1.3,5.2-1.3
			c1.2,0,2.4,0.1,3.8,0.3l0.2,0l0,0.1c0.1,0.2,0.2,0.6,0.3,0.9l0.1,0.3l-0.4-0.1c-0.1,0-0.3-0.1-0.4-0.1c-1.3-0.2-2.5-0.3-3.6-0.3
			c-1.4,0-3.1,0.2-4.4,0.9c0.2,0.4,0.4,0.8,0.4,1.3c0,1.4-1.1,2.5-2.5,2.5c0.1,2.4,1.7,5.6,4.6,9.1c1.5-1.7,3.3-3.3,5.3-4.9
			c0.3-2.5,0.7-4.9,1.4-7.4l0.1-0.3l0.2,0.2c0.2,0.2,0.3,0.4,0.5,0.6c0.1,0.1,0.1,0.1,0.1,0.1l0.1,0.1v0.1c-0.4,1.5-0.7,3.1-0.9,4.7
			l0,0.1l-0.1,0c-0.2,1.2-0.3,2.8-0.4,4.4c-0.1,1.1-0.1,2.1-0.1,3c0,1.2,0.1,2.4,0.2,3.9l0,0.2l-0.2-0.1c-0.3-0.1-0.6-0.2-0.8-0.2
			l-0.1,0l0-0.1c-0.1-1.1-0.2-2.4-0.2-3.7c0-1.4,0.1-2.8,0.2-4.1c-1.6,1.3-3.1,2.7-4.4,4.1c1.1,1.2,2.4,2.4,3.9,3.7l0.2,0.2
			l-0.3,0.1c-0.5,0.1-1,0.1-1.5-0.1l0,0c-1.3-1.1-2.3-2.1-3.1-3c-0.2,0.2-0.3,0.4-0.5,0.6l-0.1,0.2l0,0c-0.2,0.1-0.5,0.2-0.7,0.3
			l-0.1,0.1l-0.1-0.1c-0.1-0.1-0.1-0.1-0.2-0.2c-0.1,0-0.1-0.1-0.2-0.1l-0.1-0.1l0.1-0.1c0.4-0.5,0.8-1,1.2-1.4
			c-3.3-3.8-5-7.4-5-10.2c-0.8-0.4-1.4-1.3-1.4-2.3C86.7,101,87.8,99.8,89.3,99.8z M117.6,130.7c-1.5,4-3.5,6.7-5.6,7.9
			c-0.2,1.2-1.2,2.1-2.5,2.1c-1.3,0-2.3-0.9-2.5-2.1c-2.2-1.2-4.1-3.9-5.6-7.8l-0.1-0.1l1.1-0.3l0,0.1c1.3,3.4,2.9,5.7,4.6,6.9
			c0.4-1,1.3-1.7,2.4-1.7c1.1,0,2,0.7,2.4,1.7c1.7-1.2,3.3-3.5,4.6-6.8l0-0.1l0.1,0c0.3,0,0.6,0.1,0.8,0.1l0.2,0L117.6,130.7z
			 M107.3,130.5c0-0.8,0.3-2.9,0.6-3.7c0.4-0.3,1-0.5,1.6-0.5c0.7,0,1.3,0.2,1.8,0.6c0.3,0.8,0.5,2.8,0.5,3.6c0,0.8-1.9,1.4-2.2,1.5
			C109.2,131.9,107.3,131.4,107.3,130.5z M132.9,122.5c-0.1,0.2-0.3,0.3-0.5,0.4c0,0,0,0,0,0c-0.2,0.1-0.5,0.1-0.8,0.2l-0.2,0
			c-0.4,0-0.8-0.1-1.1-0.2c-0.1-0.1-0.2-0.1-0.3-0.2c0,0,0,0,0,0c0,0,0,0,0,0c-0.7,0.1-2,0.5-2.4,0.7c0.2,0,1.9,0.2,3.2,1.1
			c0.6,0.3,1.7,0.6,2.1,0.6c0,0.2-2,1.6-5.7,0.8l-1-0.2c-1.7-0.5-3.4-0.7-5.1-0.5c0.2,0.1,0.4,0.1,0.5,0.2c0.5,0.2,0.9,0.4,1.3,0.6
			c0.1,0,0.1,0.1,0.1,0.1c0.1,0,0.2,0,0.3,0c0.2,0,0.3,0.1,0.5,0.1c0.2,0.1,0.4,0.2,0.6,0.3c0.3,0.2,0.5,0.4,0.7,0.6
			c0.1,0.1,0.2,0.3,0.2,0.4c0,0,0,0,0,0c0.1,0.3,0,0.6-0.2,0.9c-0.7,0.8-1.4,0.8-2.2,0c0,0-0.1-0.1-0.1-0.2
			c-0.1-0.1-0.4-0.4-0.5-0.8c0-0.1-0.1-0.2-0.1-0.3c0,0-0.1,0-0.1,0c-0.3-0.3-0.6-0.5-1-0.6c-0.7-0.3-1.4-0.5-2-0.6
			c-0.2,0-0.3,0-0.5-0.1c0.6,0.4,1.1,0.8,1.4,1.3c0,0,0.1,0.1,0.1,0.1c0.4,0.6,0.3,1.2,0.6,1.7c0.6,1.3,0.8,1.3,1.3,1.8
			c-0.5,0.2-3.5,0.1-5-1.9c-0.1-0.1-0.1-0.2-0.2-0.3c-0.3-0.7-0.6-1.6-0.8-2.1c-0.2-0.6,0.1-1.1-0.2-1.3c-0.4-0.2-0.6,0.1-0.6,0.1
			c0,0,0,0-0.1,0.1c0,0,0,0,0,0c0,0,0,0,0,0c0,0,0,0,0,0l0,0c0,0,0,0,0,0l-0.1,0.1c-0.1,0.1-0.2,0.2-0.2,0.3l-0.1,0.1
			c-0.1,0.1-0.1,0.2-0.1,0.2c0,0-0.1,0.1-0.1,0.1c0,0.1-0.1,0.1-0.1,0.1c0,0-0.1,0.1-0.1,0.1c-0.1,0.1-0.2,0.1-0.3,0
			c0,0-0.1,0.1-0.1,0.1c0,0-0.1,0.1-0.2,0.1c-0.2,0.1-0.4,0.1-0.6,0.1c-0.2,0-0.4-0.1-0.4-0.3c0-0.1,0-0.2,0.1-0.3l-0.1,0
			c-0.1,0-0.2,0.1-0.4,0.1c-0.2,0-0.3-0.1-0.4-0.2c-0.1-0.1-0.1-0.3,0-0.4c0.1-0.1,0-0.1,0-0.1c-0.1,0.1-0.3,0.2-0.4,0.3
			c-0.1,0.1-0.3,0-0.4-0.1c-0.1-0.1-0.2-0.2-0.2-0.4l0-0.2c0,0,0-0.1,0-0.1c0,0,0-0.1,0-0.1c0,0,0,0,0-0.1c0,0-0.1,0-0.1,0l-0.1,0
			c0,0,0,0-0.1,0c-0.3-0.1-0.6-0.1-0.8-0.2c0,0-0.1,0-0.1,0c0,0,0,0-0.1,0c-0.2,0.1-0.5,0.2-0.8,0.3c0,0,0,0-0.1,0l-0.1,0
			c-0.1,0-0.1,0-0.2,0.1c0,0,0-0.1-0.1-0.1l0,0c0,0,0-0.1-0.1-0.1c0,0,0,0,0,0c0.1-0.1,0.1-0.2,0.1-0.2c0,0,0-0.1,0-0.1
			c0,0,0,0-0.1,0c-0.1,0-0.3,0-0.4,0c0,0.1,0,0.2-0.1,0.3c0,0-0.1,0.1-0.1,0.1c0,0.1,0,0.2,0,0.2l0,0.1c0,0,0,0,0,0l0,0.1
			c0,0.1,0,0.3-0.1,0.4c-0.1,0.1-0.3,0.1-0.4,0.1c-0.1,0-0.1-0.1-0.2-0.1c-0.1,0-0.1-0.1-0.2-0.1c0,0,0,0-0.1-0.1c0,0,0,0-0.1-0.1
			c0,0,0,0,0,0c0,0,0-0.1-0.1-0.1c0,0,0,0,0,0c0,0,0,0.1,0,0.1c0,0,0,0,0,0.1c0,0,0.1,0.1,0.1,0.1l0,0c0,0,0,0,0,0
			c0,0,0.1,0.1,0.1,0.2c0.1,0.1,0,0.3,0,0.4c-0.1,0.2-0.3,0.2-0.5,0.2c0,0-0.1,0-0.2,0c-0.1,0-0.1-0.1-0.2-0.1
			c0.1,0.1,0.1,0.2,0.1,0.4c0,0.2-0.2,0.3-0.4,0.3c-0.1,0-0.3,0-0.4,0c0,0-0.1,0-0.1-0.1c0,0-0.1-0.1-0.2-0.1
			c-0.1-0.1-0.1-0.1-0.2-0.1c-0.1,0.1-0.2,0.1-0.3,0c0,0-0.1-0.1-0.1-0.1c-0.1-0.1-0.2-0.2-0.2-0.3l0-0.1c0,0,0,0,0-0.1
			c0,0,0-0.1,0-0.1c0,0-0.1-0.1-0.1-0.1l-0.1-0.1c-0.5-0.4-1,1-1,1c-1.9,3.8-6.2,4.5-6.2,4.3c0-0.1,1-0.5,1.3-1.9
			c0.2-0.8,0.2-1,0.6-1.7c0.1-0.1,0.1-0.2,0.2-0.3c0.3-0.4,0.7-0.7,1.2-1c0,0,0,0,0,0c-0.2,0-0.3,0-0.5,0.1c-0.6,0.1-1.3,0.3-2,0.6
			c-0.3,0.1-0.7,0.4-1,0.6c0,0-0.1,0-0.1,0.1c0,0.1,0,0.2-0.1,0.3c-0.1,0.2-0.2,0.5-0.4,0.7c0,0.1-0.1,0.1-0.2,0.2
			c0,0-0.1,0.1-0.1,0.1c-0.7,0.8-1.5,0.8-2.2,0.1c-0.1-0.1-0.1-0.2-0.1-0.3c-0.1-0.3-0.1-0.5-0.1-0.8c0.1-0.2,0.2-0.4,0.3-0.6
			c0.1-0.2,0.3-0.3,0.5-0.4c0.2-0.1,0.4-0.2,0.6-0.3c0.1,0,0.3-0.1,0.5-0.1c0.1,0,0.2,0,0.3,0c0-0.1,0.1-0.1,0.1-0.1
			c0.2-0.1,0.4-0.2,0.6-0.3c0.2-0.1,0.4-0.2,0.6-0.3c0.1,0,0.2-0.1,0.3-0.1c-1.6-0.1-3.3,0.1-4.9,0.6c-0.3,0.1-0.6,0.2-1,0.2
			c-2,0.5-5.7-0.6-5.7-0.8c0-0.2,0.9-0.2,2.1-0.8c0.7-0.4,1.3-0.8,1.9-0.9c0.5-0.1,1.5-0.2,1.8-0.2c-0.4-0.2-2.2-0.5-2.8-0.6
			c0,0,0,0,0,0c0,0,0,0,0,0c0,0,0,0,0,0c-0.1,0.1-0.2,0.1-0.3,0.2c-0.4,0.2-0.8,0.2-1.2,0.2c-0.3,0-0.6-0.1-0.8-0.2c0,0,0,0,0,0
			c-0.2-0.1-0.4-0.2-0.6-0.4c-0.1-0.2-0.3-0.5-0.2-1c0.2-0.9,1-1.2,1.9-0.9c0.5,0.2,0.9,0.4,1.2,0.7c0.1,0.1,0.1,0.1,0.2,0.2
			c0,0,0,0,0,0c0.6,0.1,1.3,0.3,2.1,0.7c0.8,0.3,1.4,0.5,1.9,0.6c-0.1-0.1-0.3-0.2-0.5-0.3c-0.1-0.1-0.3-0.2-0.5-0.3
			c-0.2-0.1-0.4-0.2-0.6-0.3c-1.2-0.6-2.3-1.1-3.2-2.1c-0.7-0.7-0.8-1.3-1-1.9c-0.3-1.7-1.1-2.6-0.9-2.7c0.1-0.2,2.9,1.2,3.9,2.3
			c0.7,0.8,0.8,1.4,1,1.9l0,0.1c0.2,0.6,0.8,1.2,1.7,1.8c0.1,0.1,0.2,0.2,0.4,0.2c-0.2-0.3-0.4-0.6-0.6-0.9c0-0.1,0-0.1-0.1-0.2
			c-0.1-0.1-0.2-0.1-0.3-0.2c-0.1-0.1-0.2-0.2-0.3-0.3c-0.1-0.2-0.2-0.4-0.3-0.6c-0.2-0.6-0.3-1.1-0.1-1.5c0.1-0.2,0.3-0.5,0.8-0.6
			c0.8-0.2,1.4,0.3,1.7,1.3c0,0.2,0,0.5,0,0.7c0,0.2,0,0.4-0.1,0.5c0,0.1,0,0.1-0.1,0.2c0,0,0.1,0.1,0.1,0.1c0.4,1.3,1.4,2.3,2.5,3
			c-1.4-1.2-2.1-3.9-2-4c0.2-0.1,1.5,0.7,2.7,1.1c0.7,0.3,1.2,0.6,1.8,0.9c0.4,0.2,0.7,0.5,1.1,0.8c0.3,0.3,0.6,0.5,0.8,0.8l0.1,0.1
			c0.2,0.2,0.4,0.4,0.5,0.5c0.1,0.1,0.3,0.2,0.4,0.3c0.4,0.2,0.9,0,0.9,0c0.1,0,0.3-0.1,0.6-0.1c0,0,0-0.1,0.1-0.1
			c0.1-0.1,0.1-0.1,0.1-0.1c0.2-0.2,0.4-0.3,0.6-0.3c0-0.1,0-0.1,0-0.2c0.1-0.3,0.3-0.6,0.6-0.8c0.1,0,0.2-0.1,0.3-0.1
			c0.1,0,0.1,0,0.2,0c0.1,0,0.1,0,0.2,0c0.1,0,0.2,0,0.2,0c0.1-0.2,0.2-0.3,0.4-0.4c0,0,0,0,0.1,0c0.4-0.2,1-0.1,1.3,0.2
			c0.2,0.2,0.3,0.4,0.3,0.6c0,0,0,0.1,0,0.2c0,0.1,0,0.2,0,0.3c0,0.1,0,0.3,0.1,0.4c0,0,0,0,0,0c0.3,0,0.5,0,0.8,0c0,0,0.1,0,0.1,0
			c0,0,0,0,0.1,0c0,0,0,0,0,0c0.1,0,0.3,0,0.4,0.1c0.2,0,0.4,0.1,0.6,0.1c0,0,0,0,0,0c0.2-0.1,0.4-0.1,0.5-0.1
			c0.1,0,0.3-0.1,0.4-0.1c0,0,0,0,0,0c0,0,0,0,0.1,0c0,0,0.1,0,0.1,0c0.1,0,0.2,0,0.3,0c0-0.2,0.1-0.4,0.1-0.6c0-0.2,0-0.4,0.1-0.5
			c0-0.1,0.1-0.2,0.2-0.3c0,0,0,0,0,0c0.1-0.1,0.1-0.1,0.2-0.2c0.3-0.2,0.8-0.3,1.1-0.1c0,0,0.1,0.1,0.1,0.1
			c0.2,0.1,0.3,0.2,0.3,0.4c0.1,0,0.3,0,0.4,0c0.1,0,0.2,0,0.2,0.1c0.1,0,0.1,0,0.2,0.1c0,0,0,0,0,0c0.3,0.2,0.5,0.5,0.6,0.8
			c0,0,0,0.1,0,0.1c0,0,0.1,0,0.1,0c0,0,0,0,0,0c0.1,0,0.2,0,0.3,0c0,0,0.1,0,0.1,0c0,0,0,0,0,0c0,0,1,0,1.3,0.1l1,0.1
			c0.1-0.1,0.2-0.2,0.4-0.4c0.2-0.3,0.5-0.5,0.8-0.8c0.3-0.3,0.7-0.6,1.1-0.8c0.6-0.4,1.3-0.5,2-0.8c2-0.9,2.2-2,2.4-1.9
			c0.2,0.1-0.5,3.4-1.8,4.6c1.1-0.7,2.1-1.7,2.5-2.9c0,0,0-0.1,0.1-0.1c0-0.1-0.1-0.1-0.1-0.2c0-0.2-0.1-0.3-0.1-0.5
			c0-0.2,0-0.4,0-0.7c0.3-1.1,0.9-1.5,1.7-1.3c0.5,0.1,0.7,0.4,0.8,0.6c0.2,0.4,0.2,0.9-0.1,1.5c-0.1,0.2-0.2,0.4-0.3,0.6
			c-0.1,0.2-0.2,0.3-0.3,0.4c-0.1,0.1-0.2,0.1-0.3,0.2c0,0.1,0,0.1,0,0.2c-0.2,0.3-0.4,0.6-0.7,1c0.1-0.1,0.3-0.2,0.4-0.3
			c1-0.8,1.6-1.3,1.7-1.9c0.2-0.6,0.3-1.2,1-1.9c0.9-1,1.1-1.3,2.3-1.9c0.3-0.1,1.6-0.5,1.7-0.3c0.1,0.2-1,0.6-1.4,2.7
			c-0.2,0.6-0.3,1.6-1,2.3c-0.8,0.9-1.5,1.1-2.7,1.7l-0.2,0.1c-0.2,0.1-0.5,0.2-0.7,0.4c-0.3,0.2-0.6,0.3-0.8,0.5
			c0.6-0.1,1.2-0.3,2-0.7c0.7-0.3,1.4-0.5,2.1-0.7c0,0,0,0,0,0c0-0.1,0.1-0.2,0.2-0.2c0.2-0.3,0.6-0.5,1.2-0.6
			c1-0.3,1.7,0.1,1.9,0.9C133.2,122,133,122.3,132.9,122.5z"/>
		<polygon class="st0" points="111.6,122.2 111.6,122.2 111.6,122.2 		"/>
		<path class="st0" d="M167.6,82.5c3-1.4,8-4.7,10-7.1c-2.8-0.9-8.4-1.5-11.6-1.6c6.6-4.5,6.8-14.1,4.9-21.1
			c-1.5,5.6-5.5,10.1-8.2,12.9c0.2,2.7-0.6,7.5-2.1,10.4c2.2,0.8,4.7,2.1,6.5,3.4c-1.2,1.5-3.8,3.9-5.4,5.1c1.4,1.4,3.7,4.1,4.7,5.6
			c-1.5,1.1-4.8,2.4-6.5,3c0.8,1.7,2,4.8,2.4,7c-1.9,0.3-4.6,0.5-7.4,0.5c0.1,2.1-0.2,5.3-0.5,7.2c-2.6-0.2-5.6-1.3-7-1.9
			c-0.7,2.8-2.5,5.6-2.6,5.8c-2.5-2.7-4.8-3.8-7-3.7v-1.8c2.2-0.1,4.5,0.9,6.3,2.6c0.8-1.4,1.6-4.1,1.9-5.5c1.6,0.9,4.1,1.8,6.4,2.1
			c0.2-1.9,0.4-4.5,0.1-6.6c2.2,0.2,4.7,0.2,7.1-0.3c-0.4-1.8-1.9-4.8-2.9-6.4c2.3-0.6,5-1.7,6.4-2.5c-1.1-1.5-3.2-3.9-4.6-5.1
			c1.7-1.1,4.2-3.2,5.2-4.5c-1.7-1.1-4.2-2.4-6.2-3.1c2.7-3.9,3.4-11.6,2.8-15.1l0,0c-2.5,8.1-9.6,14.1-13.9,16.9
			c-0.2,0.1-0.4,0.3-0.6,0.5l0,0c0,0,0,0,0,0c0,0,0,0,0,0c-0.2,0.2-1,1.2-0.6,2.4c0.1,0.3,0.1,0.7,0.2,0.9c0.3,1.6,0.3,4-2,6.2
			c-1.9,1.9-4.4,1.9-5.8,1.8l0-4.3c0-0.6-0.5-1-1-1h-2.9l-1.3-1.5c0,0,1.4,0.1,3-0.1c1.6-0.1,3.3-0.9,3.3-0.9s-1.8,0-2.6-0.2
			c-0.9-0.2-3.1-1-4.9-3.1c-0.6-0.8-1.2-1.6-1.6-2.4c-1.7-1.4-3.3-3.3-4.5-5.9c-0.7-1.7-1.2-4.3-1.3-6c-0.5,0.5-1.2,1.2-2,2.2
			c-1.3,1.8-2,4.4-2,4.4l-0.5,1.9l-1-1.7c-0.1-0.1-1.4-2.3-1.6-5.3c-0.1-1.3,0-2.6,0.1-3.6c-0.5,0.3-1,0.6-1.6,1
			c-2.4,1.7-3.7,3.6-3.7,3.6c-1.3,1.6-1.9,2.9-2.2,3.7c-0.3-0.7-0.9-2-2.2-3.7c0,0-1.3-1.9-3.7-3.6c-0.6-0.4-1.1-0.7-1.6-1
			c0.1,1,0.2,2.3,0.1,3.6c-0.2,3-1.6,5.2-1.6,5.3l-1,1.7L99,71.9c0,0-0.7-2.6-2-4.4c-0.7-1-1.4-1.7-2-2.2c-0.2,1.7-0.6,4.3-1.3,6
			c-1.1,2.6-2.8,4.5-4.5,5.9c-0.4,0.8-0.9,1.7-1.6,2.4c-1.8,2.1-4,2.9-4.9,3.1c-0.9,0.2-2.6,0.2-2.6,0.2s1.8,0.8,3.3,0.9
			c1.6,0.1,3,0.1,3,0.1l-1.3,1.5h-2.9c-0.6,0-1,0.5-1,1l0,4.3c-1.4,0.1-3.9,0.1-5.8-1.8c-2.3-2.2-2.3-4.6-2-6.2
			c0.1-0.3,0.2-0.6,0.2-0.9c0.4-1.3-0.4-2.3-0.6-2.4c0,0,0,0,0,0c0,0,0,0,0,0l0,0c-0.2-0.2-0.4-0.3-0.6-0.5
			C68,75.9,61,69.9,58.5,61.8l0,0c-0.6,3.5,0.1,11.2,2.8,15.1c-2,0.8-4.5,2-6.2,3.1c1.1,1.2,3.6,3.3,5.2,4.5
			c-1.4,1.2-3.5,3.5-4.6,5.1c1.4,0.8,4.2,1.9,6.4,2.5c-1,1.7-2.6,4.7-2.9,6.4c2.4,0.5,4.9,0.5,7.1,0.3c-0.3,2.1-0.1,4.7,0.1,6.6
			c2.3-0.3,4.7-1.2,6.4-2.1c0.3,1.4,1.2,4.1,1.9,5.5c1.8-1.7,4.1-2.6,6.3-2.6v1.8c-2.1,0-4.5,1.1-7,3.7c-0.1-0.1-1.8-2.9-2.6-5.8
			c-1.4,0.7-4.4,1.7-7,1.9c-0.4-1.9-0.6-5.1-0.5-7.2c-2.8,0-5.4-0.2-7.4-0.5c0.3-2.2,1.5-5.3,2.4-7c-1.7-0.6-5-1.9-6.5-3
			c1-1.5,3.3-4.2,4.7-5.6c-1.6-1.3-4.2-3.6-5.4-5.1c1.8-1.4,4.4-2.6,6.5-3.4c-1.5-2.9-2.4-7.7-2.1-10.4c-2.7-2.8-6.7-7.3-8.2-12.9
			c-1.9,7-1.7,16.7,4.9,21.1c-3.2,0.1-8.8,0.7-11.6,1.6c1.9,2.3,7,5.7,10,7.1c-2.3,0.9-6.6,3.2-8.3,4.8c2.3,1.4,7.2,3,9.6,3.5
			c-1.4,1.1-4.2,4.3-5.2,6.1c1.9,0.6,5.9,1.1,8.5,1.3c-0.8,1.7-1.7,4.7-2,6.7c1.3,0.1,5.5-0.1,7.5-0.6c-0.2,1.7-0.1,4.8,0.2,6.1
			c2.1-0.3,5-1.1,6.3-1.7c0.4,1.5,1.8,4.8,2.3,5.6c0.9-0.2,1.9-0.5,2.9-0.8c2.7-1,5.8,0.2,7,2.8c2,4.6,1.2,10-2.6,8.9
			c-4.4,0.7-1.4,6.3-3.9,8.1c3.4,2.3,4.5-3.2,8.7-2.3c-0.4,2.1-0.4,5.8-0.1,7.3c1.4-1.1,3.3-1.9,4.6-2c-0.3,1.2-0.6,4-0.1,5.8
			c0.9-0.7,6.5-2.1,6.5-2.1s-2.2,4.5-0.8,8.8c0.7,0.6,5.9-1.9,5.9-3.4c0.1,1.8-2,5.8-5.3,6.5c3.6,3.5,6.8,3.4,7.2,3.4
			c0.5,0,1-0.1,1.5-0.3c-0.3,1-0.4,2.3-0.2,3.2c0.2,0,0.4,0,0.7,0c0.9,0,1.7-0.1,2.4-0.5c0.1,0.9,0.5,2.1,1.2,2.9
			c0.1,0.2,0.3,0.3,0.4,0.4c0.8,0,2.8-0.9,3.2-1.5v0c0,0,0,0,0,0c0,0,0,0,0,0v0c0.4,0.6,2.4,1.5,3.2,1.5c0.2-0.1,0.3-0.3,0.4-0.4
			c0.7-0.8,1.1-1.9,1.2-2.9c0.7,0.4,1.5,0.5,2.4,0.5c0.2,0,0.4,0,0.7,0c0.2-0.9,0.1-2.1-0.2-3.2c0.5,0.2,1,0.3,1.5,0.3
			c0.5,0,3.6,0.1,7.2-3.4c-3.3-0.7-5.5-4.7-5.3-6.5c0.1,1.6,5.2,4,5.9,3.4c1.4-4.3-0.8-8.8-0.8-8.8s5.6,1.4,6.5,2.1
			c0.5-1.8,0.2-4.6-0.1-5.8c1.3,0.1,3.2,0.9,4.6,2c0.3-1.5,0.4-5.2-0.1-7.3c4.2-0.9,5.2,4.6,8.7,2.3c-2.5-1.8,0.6-7.3-3.9-8.1
			c-3.9,1.1-4.6-4.3-2.6-8.9c1.1-2.6,4.3-3.8,7-2.8c1,0.4,2,0.6,2.9,0.8c0.5-0.8,1.9-4,2.3-5.6c1.4,0.5,4.3,1.4,6.3,1.7
			c0.3-1.3,0.3-4.4,0.2-6.1c2.1,0.5,6.3,0.7,7.5,0.6c-0.2-2-1.2-5-2-6.7c2.5-0.1,6.5-0.7,8.5-1.3c-1-1.7-3.8-4.9-5.2-6.1
			c2.3-0.5,7.3-2.1,9.6-3.5C174.2,85.7,170,83.4,167.6,82.5z M135.4,127.3c-0.1,0.3-0.3,0.6-0.5,1c-0.1,0.1-0.1,0.2-0.2,0.3
			c-0.2,0.2-0.3,0.5-0.5,0.7c-0.1,0.1-0.2,0.3-0.3,0.4c-0.3,0.3-0.5,0.6-0.8,1c-0.2,0.2-0.4,0.4-0.6,0.6c-0.2,0.2-0.3,0.3-0.5,0.5
			c-0.2,0.2-0.5,0.5-0.8,0.7c-0.1,0.1-0.3,0.3-0.4,0.4c-0.7,0.6-1.4,1.1-2.1,1.7c0,0,0,0,0,0c-1,0.7-2,1.4-3.1,2h0
			c-0.4,0.2-0.8,0.4-1.2,0.6c-8.9,4.6-13.4,8.1-14.7,9.2c0,0-0.1,0-0.1,0c-1.3-1.1-5.7-4.7-14.7-9.2c-0.4-0.2-0.8-0.4-1.2-0.6h0
			c-1.1-0.6-2.2-1.3-3.1-2c0,0,0,0,0,0c-0.8-0.5-1.5-1.1-2.1-1.7c-0.2-0.1-0.3-0.3-0.4-0.4c-0.3-0.2-0.5-0.5-0.8-0.7
			c-0.2-0.2-0.3-0.3-0.5-0.5c-0.2-0.2-0.4-0.4-0.6-0.6c-0.3-0.3-0.6-0.7-0.8-1c-0.1-0.1-0.2-0.3-0.3-0.4c-0.2-0.2-0.4-0.5-0.5-0.7
			c-0.1-0.1-0.2-0.2-0.2-0.3c-0.2-0.3-0.4-0.7-0.5-1c-1.2-2.6-1-4.7-1-4.7l0-0.1l0-34.7c0-0.6,0.5-1,1-1h3h22.8h0h0h0h22.8h3
			c0.6,0,1,0.5,1,1l0,34.7l0,0.1C136.4,122.5,136.6,124.7,135.4,127.3z"/>
		<polygon class="st0" points="133.5,27 133.5,27 133.5,27 		"/>
		<path class="st0" d="M134.3,31.8c0.7,0,1.3-0.6,1.3-1.3c0-0.7-0.6-1.3-1.3-1.3c-0.7,0-1.3,0.6-1.3,1.3
			C133,31.2,133.6,31.8,134.3,31.8z"/>
		<path class="st0" d="M134.3,39.2c0.9,0,1.6-3.4,1.6-5c0-0.9-0.7-1.5-1.6-1.5c-0.9,0-1.6,0.6-1.6,1.5
			C132.7,35.9,133.4,39.2,134.3,39.2z"/>
		<polygon class="st0" points="133.5,27 135.2,27 134.9,24.9 137.1,25.1 137.1,23.3 134.9,23.6 135.2,21.4 133.5,21.4 133.7,23.6
			131.6,23.3 131.6,25.1 133.7,24.9 		"/>
		<path class="st0" d="M126.6,43.2c0.6,0.1,1.2,0.2,1.8,0.3c0.1,0,0.1,0,0.2,0l0,0l0.1,0l0,0l0,0l0,0h0l0,0l0,0l0,0c0,0,0,0,0,0l0,0
			l0.2,0l0,0c0.1,0,0.2,0,0.3,0l0.3,0c0.2,0,0.4,0,0.5,0c0.1,0,0.2,0,0.4,0c0.2,0,0.3,0,0.5,0c1.6-0.1,3.3-0.4,4.7-0.8
			c1.5-0.3,3.3-0.7,5-0.8l0.1,0c0.1,0,0.2,0,0.3,0l0.1,0h0.1h0.1c0,0,0.1,0,0.1,0h0.1h0.1l0,0l0.1,0h0.2h0.1l0,0l0,0h0l0,0
			c0.1,0,0.1,0,0.2,0c0.5-1.7,1-3.8,1-4.9c0-2.4-1.3-5-5.9-5.8c0,2.9-1.4,9.9-3.1,9.9h-0.2c-1.7,0-3.1-7-3.1-9.9
			c-4.6,0.8-5.9,3.4-5.9,5.8c0,1.3,0.6,4,1.2,5.8C126.5,42.9,126.5,43.1,126.6,43.2z"/>
		<path class="st0" d="M150.5,30.6L150.5,30.6c0.1,0-1.3-3.3,0.9-4.1c2.2-0.9-0.8-0.3,0.8-4.8v0c1.8-5.3,5.8-4,5.8-4
			c-2.8-2.2-4.9-2-6.5-0.8c-0.9,0.7-2.3,2.3-3.3,5.5C146.9,26.5,148.3,30.2,150.5,30.6z"/>
		<path class="st0" d="M160.7,22.9c0.2,6.6,11.2,9.3,11.2,9.3s-6.4-4.6-5.1-7.9c0,0,4.2,1.8,9,1c-10.2-2.1-6.9-5.3-9.3-7.9
			c-2.5-2.7-6.6-3-7.6-3.1c-2.6-0.2-2.7-0.1-5.8,0.5C159.9,14.9,160.6,18.5,160.7,22.9z"/>
		<path class="st0" d="M159.2,35.2c1.5-5.2-1.2-7.5-1.2-7.5c-0.8-0.9-5-0.8-6.5,0.2c0,0,4-0.1,3.4,5.7c-0.6,5.8-8.5,6.9-10.7,7.2
			l-0.2,0.7C147.7,41.6,157.8,40.4,159.2,35.2z"/>
		<path class="st0" d="M117.8,35.1h-4.1c2,5.5,7.7,7.4,11.5,7.9l-0.2-0.6C121.2,40.8,119.1,39.2,117.8,35.1z"/>
		<path class="st0" d="M84.7,31.8c0.7,0,1.3-0.6,1.3-1.3c0-0.7-0.6-1.3-1.3-1.3c-0.7,0-1.3,0.6-1.3,1.3C83.4,31.2,84,31.8,84.7,31.8
			z"/>
		<path class="st0" d="M84.7,39.2c0.9,0,1.6-3.4,1.6-5c0-0.9-0.7-1.5-1.6-1.5c-0.9,0-1.6,0.6-1.6,1.5C83.1,35.9,83.8,39.2,84.7,39.2
			z"/>
		<polygon class="st0" points="83.8,27 85.5,27 85.3,24.9 87.4,25.1 87.4,23.3 85.3,23.6 85.5,21.4 83.8,21.4 84.1,23.6 81.9,23.3
			81.9,25.1 84.1,24.9 		"/>
		<polygon class="st0" points="85.5,27 85.5,27 85.5,27 		"/>
		<path class="st0" d="M76.7,42L76.7,42L76.7,42L76.7,42L76.7,42l0.2,0h0.2l0.1,0l0,0h0.1h0.1c0,0,0.1,0,0.1,0h0.1h0.1l0.1,0
			c0.1,0,0.2,0,0.3,0l0.1,0c1.8,0.1,3.5,0.5,5,0.8c1.5,0.3,3.2,0.7,4.7,0.8c0.2,0,0.3,0,0.5,0c0.1,0,0.2,0,0.4,0c0.2,0,0.4,0,0.5,0
			l0.3,0c0.1,0,0.2,0,0.3,0l0,0l0.2,0l0,0c0,0,0,0,0,0l0,0l0,0l0,0h0l0,0l0,0l0,0l0.1,0l0,0c0.1,0,0.1,0,0.2,0
			c0.6-0.1,1.3-0.2,1.8-0.3c0-0.1,0.1-0.2,0.1-0.3c0.6-1.8,1.2-4.5,1.2-5.8c0-2.4-1.3-5-5.9-5.8c0,2.9-1.4,9.9-3.1,9.9h-0.2
			c-1.7,0-3.1-7-3.1-9.9c-4.6,0.8-5.9,3.4-5.9,5.8c0,1.1,0.5,3.2,1,4.9C76.6,42,76.7,42,76.7,42z"/>
		<path class="st0" d="M61,17.7c0,0,4-1.2,5.8,4v0c1.6,4.5-1.4,3.9,0.8,4.8c2.2,0.9,0.8,4.1,0.8,4.1l0.1,0c2.2-0.4,3.6-4.1,2.3-8.3
			c-1-3.2-2.4-4.7-3.3-5.5C65.9,15.7,63.8,15.5,61,17.7z"/>
		<path class="st0" d="M52.1,24.2c1.3,3.4-5.1,7.9-5.1,7.9s11-2.7,11.2-9.3c0.1-4.4,0.8-8,7.5-8.1c-3-0.7-3.2-0.7-5.8-0.5
			c-0.9,0.1-5,0.4-7.6,3.1c-2.5,2.6,0.9,5.8-9.3,7.9C47.9,26,52.1,24.2,52.1,24.2z"/>
		<path class="st0" d="M64.1,33.6c-0.6-5.8,3.4-5.7,3.4-5.7c-1.5-1-5.7-1.1-6.5-0.2c0,0-2.7,2.2-1.2,7.5c1.5,5.2,11.5,6.4,15.2,6.4
			l-0.2-0.7C72.6,40.6,64.6,39.4,64.1,33.6z"/>
		<path class="st0" d="M105.3,35.1h-4.1c-1.3,4.2-3.4,5.7-7.3,7.3l-0.2,0.6C97.6,42.4,103.3,40.5,105.3,35.1z"/>
		<path class="st0" d="M114.7,59.4c-1.2,1.9-2.2,3.8-2.9,5.7c0.7-0.7,1.6-1.5,2.7-2.3c1.8-1.3,3.3-1.9,3.4-2l1.6-0.7l-0.4,1.7
			c0,0-0.6,2.5-0.4,4.8c0.1,1,0.3,1.9,0.6,2.7c0.4-0.9,0.9-2,1.6-2.9c1.9-2.6,3.6-3.5,3.7-3.5l1.2-0.6l0.1,1.3c0,0,0.3,4.6,1.3,6.9
			c1.8,4.1,5.1,6.2,7.2,7.2c-0.3-0.3-0.6-0.6-1-1c-0.9-1-2-2.8-2.5-6.6c-0.4-3.2,0.8-6.4,1.3-7.4c0.2,0.9,0.6,1.6,1,1.8
			c0,0-0.1-0.7,0.1-1.6c0.3-2.2,2.8-5.5,5.9-7.6c0.7-0.5,1.2-0.8,1.7-1.1c0.5-0.3,0.9-0.6,1.5-0.9c-0.6,0.1-1.5,0.2-1.9,0.3l-0.2,0
			c-0.4,0-1.1,0.1-1.8,0.1c-1.5,0-3.4-0.2-4.8-1.4c-1.4-1.1-2-2.4-2.2-3.3c-0.6,0-1.4,0-2.5-0.1c-1.2-0.1-2.2-0.3-2.9-0.5
			c-1.5,1-3.2,1.4-5.2,1.5c-0.2,0-0.6,0-0.9,0c0.6,0.5,1.3,0.9,2.1,1.3c0,0,0.1,0,0.1,0l-0.5,0.2C121.5,51.6,118.8,53.1,114.7,59.4z
			"/>
		<path class="st0" d="M140.6,48.3c-0.7-0.1-1.4-0.1-2.2-0.1c0,0.5,0,0.9,0.1,1.3c0.1,0.6,0.4,1.1,0.8,1.4
			C139.9,50.4,140.4,49.6,140.6,48.3z"/>
		<path class="st0" d="M142.2,43.7L142.2,43.7L142.2,43.7C142.1,43.7,142.1,43.7,142.2,43.7l-0.1,0h0h0h0h0c0,0-0.1,0-0.1,0h0h0h0
			h-0.1h0c0,0,0,0,0,0h0h0h0c0,0,0,0,0,0c-0.1,0-0.3,0-0.4,0c-1.6,0.1-3.2,0.4-4.7,0.8c-1.6,0.4-3.3,0.8-5.1,0.8c-0.3,0-0.7,0-1,0
			c-0.2,0-0.4,0-0.6,0c-0.1,0-0.2,0-0.3,0c-0.1,0-0.3,0-0.4,0c0,0,0,0-0.1,0c0,0,0,0-0.1,0c0,0-0.1,0-0.1,0c0,0-0.1,0-0.1,0
			c0,0,0,0-0.1,0c0,0-0.1,0-0.1,0c0,0,0,0-0.1,0c0,0,0,0-0.1,0c-3.5-0.5-6-1.6-7.1-2.2c0.3,0.3,0.6,0.8,1.1,1.3
			c0.2,0.2,0.4,0.4,0.6,0.6c0.5,0.4,1,0.8,1.6,1.2c0.9,0.4,4.1,1.8,8.5,1.2c5-0.7,5.9-0.6,7.1-0.6l0.4,0c1.7,0.1,4.3,1.3,5.4,1.9
			c0.5-1,0.9-2,1.2-3.1c-0.3-0.3-0.6-0.6-1.3-0.9c-0.2-0.1-0.4-0.2-0.7-0.3c-0.5-0.2-1.1-0.3-1.8-0.4
			C142.9,43.8,142.6,43.7,142.2,43.7L142.2,43.7z"/>
		<path class="st0" d="M156.1,60.1L156.1,60.1C156.2,60,156.1,60,156.1,60.1c-0.2,0-1.9,1-5.7-1.5c-3.7-2.4-6.6-3.5-8.1-3.7
			c-0.4,0.2-0.7,0.4-1,0.6c-0.5,0.3-1,0.5-1.6,1c-0.2,0.1-0.4,0.3-0.6,0.4c0.1,0,0.2,0.1,0.4,0.1c3.5,0.3,6.3,2.5,6.6,3.2
			c0,0.1,0.1,0.1,0.1,0c0.4-1.2-0.1-2.1-0.1-2.1s1.6,1,4.8,2.9C154.1,62.9,155.6,60.8,156.1,60.1z"/>
		<path class="st0" d="M137.1,50.2c-0.3-0.2-0.5-0.5-0.6-0.9c-0.1-0.3-0.2-0.6-0.3-0.9c-0.8,0.1-1.8,0.2-3.1,0.4
			c-0.3,0-0.5,0.1-0.8,0.1c0.5,1.1,1.6,2.4,3.7,2.9c0.1,0,0.3,0.1,0.4,0.1c0.1,0,0.3,0,0.4,0.1c0.9,0.1,1.7,0.2,2.5,0.2
			c1.3,0,3-0.2,4.5-0.6c0.3-0.4,0.7-0.9,1-1.4c-0.1-0.1-0.2-0.1-0.4-0.2c-0.3-0.2-1.4-0.8-1.9-1c-0.2,0.6-0.5,1.2-1,1.5
			c-0.6,0.4-1.3,0.7-2.1,0.7c-0.8,0-1.5-0.2-2.1-0.6C137.3,50.4,137.2,50.3,137.1,50.2z"/>
		<path class="st0" d="M147.8,47.4c-1.2,3.1-3.1,5.6-4.5,6.7c0,0,0,0,0,0c8.9-2.4,10.5,2.1,10.5,2.3c0,0.2,0.1,0.2,0.2,0.1
			c0.2-0.2,3.1-3.4,1-6.4C153.2,47.7,149.1,47.4,147.8,47.4z M147.8,49.7L147.8,49.7c0.3-0.4,0.6-1.2,0.6-1.2c0.7,0,1.9,0.2,1.9,1
			C149.4,49.4,148.5,49.4,147.8,49.7z"/>
		<path class="st0" d="M80.5,49.5c0.1-0.4,0.1-0.8,0.1-1.3c-0.8,0-1.5,0-2.2,0.1c0.2,1.3,0.7,2.1,1.4,2.6
			C80.1,50.6,80.4,50.2,80.5,49.5z"/>
		<path class="st0" d="M90.7,45.2C90.7,45.2,90.7,45.2,90.7,45.2c-0.1,0-0.1,0-0.2,0c0,0,0,0-0.1,0c0,0-0.1,0-0.1,0c0,0-0.1,0-0.1,0
			c0,0,0,0-0.1,0c0,0,0,0-0.1,0c-0.1,0-0.3,0-0.4,0c-0.1,0-0.2,0-0.3,0c-0.2,0-0.4,0-0.6,0c-0.3,0-0.7,0-1,0
			c-1.7-0.1-3.4-0.4-5.1-0.8c-1.6-0.4-3.1-0.7-4.7-0.8c-0.1,0-0.3,0-0.4,0c0,0,0,0,0,0h0h0h0c0,0,0,0,0,0h0h-0.1h0h0h0
			c0,0-0.1,0-0.1,0h0h0h0h0h0c0,0,0,0,0,0h0h0h0c-0.4,0-0.7,0-1,0.1c-0.7,0.1-1.3,0.2-1.8,0.4c-0.3,0.1-0.5,0.2-0.7,0.3
			c-0.7,0.4-1,0.7-1.3,0.9c0.3,1.1,0.7,2.1,1.2,3.1c1-0.6,3.6-1.8,5.4-1.9l0.4,0c1.2-0.1,2.1-0.2,7.1,0.6c4.4,0.6,7.6-0.7,8.5-1.2
			c0.6-0.4,1.1-0.8,1.6-1.2c0.2-0.2,0.4-0.4,0.6-0.6c0.5-0.5,0.9-1,1.1-1.3C96.7,43.6,94.3,44.7,90.7,45.2
			C90.7,45.2,90.7,45.2,90.7,45.2z"/>
		<path class="st0" d="M62.9,60.1L62.9,60.1c0.5,0.7,2,2.8,5.2,0.9c3.2-1.9,4.8-2.9,4.8-2.9s-0.5,1-0.1,2.1c0,0.1,0.1,0.1,0.1,0
			c0.3-0.7,3.1-2.9,6.6-3.2c0.2,0,0.3-0.1,0.4-0.1c-0.2-0.1-0.4-0.3-0.6-0.4c-0.6-0.4-1.1-0.7-1.6-1c-0.3-0.2-0.7-0.4-1-0.6
			c-1.5,0.3-4.4,1.3-8.1,3.7C64.8,61.1,63,60.1,62.9,60.1C62.9,60,62.8,60,62.9,60.1z"/>
		<path class="st0" d="M76.3,49c-0.5,0.2-1.6,0.8-1.9,1c-0.1,0.1-0.3,0.1-0.4,0.2c0.3,0.5,0.7,1,1,1.4c1.5,0.4,3.2,0.6,4.5,0.6
			c0.8,0,1.6-0.1,2.5-0.2c0.1,0,0.3,0,0.4-0.1c0.1,0,0.3-0.1,0.4-0.1c2.1-0.5,3.1-1.7,3.7-2.9c-0.2,0-0.5,0-0.8-0.1
			c-1.3-0.2-2.3-0.3-3.1-0.4c-0.1,0.3-0.2,0.6-0.3,0.9c-0.2,0.3-0.4,0.6-0.6,0.9c-0.1,0.1-0.2,0.2-0.3,0.2c-0.6,0.4-1.3,0.6-2.1,0.6
			c-0.8,0-1.6-0.2-2.1-0.7C76.9,50.1,76.5,49.5,76.3,49z"/>
		<path class="st0" d="M64,50.1c-2.1,2.9,0.8,6.2,1,6.4c0.1,0.2,0.2,0.1,0.2-0.1c0-0.2,1.5-4.7,10.5-2.3c0,0,0,0,0,0
			c-1.4-1.2-3.4-3.6-4.5-6.7C69.9,47.4,65.8,47.7,64,50.1z M71.2,49.7c-0.7-0.3-1.7-0.3-2.5-0.2c0-0.8,1.2-1,1.9-1
			C70.6,48.5,70.9,49.3,71.2,49.7L71.2,49.7z"/>
		<path class="st0" d="M99.2,50.1c-0.3,0-0.7,0-0.9,0c-2-0.1-3.6-0.5-5.2-1.5c-0.6,0.2-1.7,0.4-2.9,0.5c-1,0.1-1.9,0.1-2.5,0.1
			c-0.3,0.8-0.9,2.1-2.2,3.3c-1.4,1.1-3.3,1.4-4.8,1.4c-0.7,0-1.3-0.1-1.8-0.1l-0.2,0c-0.4,0-1.3-0.2-1.9-0.3c0.5,0.4,1,0.7,1.5,0.9
			c0.5,0.3,1,0.6,1.7,1.1c3.1,2.2,5.6,5.4,5.9,7.6c0.2,0.8,0.1,1.6,0.1,1.6c0.4-0.3,0.8-1,1-1.8c0.4,1,1.7,4.2,1.3,7.4
			c-0.5,3.8-1.6,5.6-2.5,6.6c-0.4,0.4-0.7,0.8-1,1c2.1-1,5.4-3.2,7.2-7.2c1-2.3,1.3-6.9,1.3-6.9l0.1-1.3l1.2,0.6
			c0.1,0,1.8,0.9,3.7,3.5c0.7,0.9,1.2,2,1.6,2.9c0.2-0.7,0.5-1.7,0.6-2.7c0.2-2.3-0.4-4.8-0.4-4.8l-0.4-1.7l1.6,0.7
			c0.1,0,1.6,0.7,3.4,2c1.1,0.8,2,1.6,2.7,2.3c-0.7-1.9-1.7-3.9-2.9-5.7c-4.2-6.3-6.8-7.8-6.8-7.8L97,51.4c0,0,0.1,0,0.1,0
			C97.9,51,98.6,50.6,99.2,50.1z"/>
	</g>
</g>
</svg>
